<svg xmlns="http://www.w3.org/2000/svg" viewBox="0 0 292 512"  fill="#fff">
  <path
    d="M0,479v-5c1.49-13.48,10-22.58,19.06-31.64q91.18-90.8,182.09-181.87a32.37,32.37,0,0,1,4.91-3.39c0-.72,0-1.45-.05-2.18a34.21,34.21,0,0,1-4.89-3.43Q110.25,160.72,19.4,70C10.21,60.8,1.52,51.66,0,38V34c2.35-6.29,3.88-13.07,7.25-18.76C12.86,5.77,22.57,2,33,0h6C51.63,1.73,60.32,9.63,68.9,18.24Q171,120.65,273.37,222.7c9,9,17.28,18,18.63,31.3v4c-1.35,13.34-9.65,22.34-18.63,31.3Q171,391.35,68.91,493.76C60.32,502.38,51.61,510.24,39,512H33c-10.34-2-19.95-5.71-25.64-15C4,491.53,2.4,485,0,479Z"/>
</svg>
